HIERARCHY
ROOT Hips
{
	OFFSET 0.00000 0.00000 0.00000
	CHANNELS 6 Xposition Yposition Zposition Zrotation Yrotation Xrotation 
	JOINT LHipJoint
	{
		OFFSET 0 0 0
		CHANNELS 3 Zrotation Yrotation Xrotation
		JOINT LeftUpLeg
		{
			OFFSET 1.85742 -1.74412 1.01653
			CHANNELS 3 Zrotation Yrotation Xrotation
			JOINT LeftLeg
			{
				OFFSET 2.54803 -7.00067 0.00000
				CHANNELS 3 Zrotation Yrotation Xrotation
				JOINT LeftFoot
				{
					OFFSET 2.51202 -6.90173 0.00000
					CHANNELS 3 Zrotation Yrotation Xrotation
					JOINT LeftToeBase
					{
						OFFSET 0.17547 -0.48209 1.64281
						CHANNELS 3 Zrotation Yrotation Xrotation
						End Site
						{
							OFFSET 0.00000 -0.00000 0.86587
						}
					}
				}
			}
		}
	}
	JOINT RHipJoint
	{
		OFFSET 0 0 0
		CHANNELS 3 Zrotation Yrotation Xrotation
		JOINT RightUpLeg
		{
			OFFSET -1.95533 -1.74413 1.01654
			CHANNELS 3 Zrotation Yrotation Xrotation
			JOINT RightLeg
			{
				OFFSET -2.49465 -6.85400 0.00000
				CHANNELS 3 Zrotation Yrotation Xrotation
				JOINT RightFoot
				{
					OFFSET -2.54783 -7.00010 0.00000
					CHANNELS 3 Zrotation Yrotation Xrotation
					JOINT RightToeBase
					{
						OFFSET -0.18513 -0.50864 1.69288
						CHANNELS 3 Zrotation Yrotation Xrotation
						End Site
						{
							OFFSET -0.00000 -0.00000 0.89242
						}
					}
				}
			}
		}
	}
	JOINT LowerBack
	{
		OFFSET 0 0 0
		CHANNELS 3 Zrotation Yrotation Xrotation
		JOINT Spine
		{
			OFFSET 0.02173 2.16290 -0.15998
			CHANNELS 3 Zrotation Yrotation Xrotation
			JOINT Spine1
			{
				OFFSET 0.00940 2.17323 -0.00467
				CHANNELS 3 Zrotation Yrotation Xrotation
				JOINT Neck
				{
					OFFSET 0 0 0
					CHANNELS 3 Zrotation Yrotation Xrotation
					JOINT Neck1
					{
						OFFSET 0.01475 1.85823 0.31113
						CHANNELS 3 Zrotation Yrotation Xrotation
						JOINT Head
						{
							OFFSET 0.01902 1.88783 -0.37187
							CHANNELS 3 Zrotation Yrotation Xrotation
							End Site
							{
								OFFSET 0.00489 1.93211 -0.16169
							}
						}
					}
				}
				JOINT LeftShoulder
				{
					OFFSET 0 0 0
					CHANNELS 3 Zrotation Yrotation Xrotation
					JOINT LeftArm
					{
						OFFSET 3.34199 1.32384 -0.07862
						CHANNELS 3 Zrotation Yrotation Xrotation
						JOINT LeftForeArm
						{
							OFFSET 5.27950 -0.00000 0.00000
							CHANNELS 3 Zrotation Yrotation Xrotation
							JOINT LeftHand
							{
								OFFSET 3.53504 -0.00000 0.00000
								CHANNELS 3 Zrotation Yrotation Xrotation
								JOINT LeftFingerBase
								{
									OFFSET 0 0 0
									CHANNELS 3 Zrotation Yrotation Xrotation
									JOINT LeftHandIndex1
									{
										OFFSET 0.66795 -0.00000 0.00000
										CHANNELS 3 Zrotation Yrotation Xrotation
										End Site
										{
											OFFSET 0.53852 -0.00000 0.00000
										}
									}
								}
								JOINT LThumb
								{
									OFFSET 0 0 0
									CHANNELS 3 Zrotation Yrotation Xrotation
									End Site
									{
										OFFSET 0.54674 -0.00000 0.54674
									}
								}
							}
						}
					}
				}
				JOINT RightShoulder
				{
					OFFSET 0 0 0
					CHANNELS 3 Zrotation Yrotation Xrotation
					JOINT RightArm
					{
						OFFSET -3.16149 1.45719 -0.50507
						CHANNELS 3 Zrotation Yrotation Xrotation
						JOINT RightForeArm
						{
							OFFSET -5.25035 -0.00000 0.00000
							CHANNELS 3 Zrotation Yrotation Xrotation
							JOINT RightHand
							{
								OFFSET -3.58884 -0.00000 0.00000
								CHANNELS 3 Zrotation Yrotation Xrotation
								JOINT RightFingerBase
								{
									OFFSET 0 0 0
									CHANNELS 3 Zrotation Yrotation Xrotation
									JOINT RightHandIndex1
									{
										OFFSET -0.77924 -0.00000 0.00000
										CHANNELS 3 Zrotation Yrotation Xrotation
										End Site
										{
											OFFSET -0.62824 -0.00000 0.00000
										}
									}
								}
								JOINT RThumb
								{
									OFFSET 0 0 0
									CHANNELS 3 Zrotation Yrotation Xrotation
									End Site
									{
										OFFSET -0.63783 -0.00000 0.63783
									}
								}
							}
						}
					}
				}
			}
		}
	}
}
MOTION
Frames: 8
Frame Time: .0083333
12.6805 17.4387 -1.0417 0 0 0 0 0 0 -21 0 0 0 0 0 0 0 0 0 0 0 0 0 0 21 0 0 0 0 0 0 0 0 0 0 0 0 0 0 0 0 0 0 0 0 0 0 -16 0 0 21 0 0 11 0 0 0 -8 0 0 0 0 0 0 0 0 0 0 0 0 0 0 0 0 0 0 0 0 8 0 0 0 0 0 0 0 0 0 0 0 0 0 0 0 0 0
12.6805 17.4387 -1.0417 -0.0421 15.9656 2.8204 0.0000 0.0000 0.0000 -17.3816 -16.0361 -8.2040 2.2596 9.3871 27.0139 1.0975 0.2103 -19.8859 2.8205 -10.3987 -30.2776 0.0000 0.0000 0.0000 18.5878 22.6604 -0.3317 -1.6526 -8.1014 23.0226 0.0164 -14.6344 -20.6051 -1.5045 7.7471 -21.9485 -3.7128 1.8911 1.8703 0.6117 2.4001 -4.1181 2.5516 1.3668 -5.5015 2.8049 2.7937 -22.7441 -0.0516 3.0581 27.8013 0.0585 1.6677 13.1803 0.0000 0.0000 0.0000 -82.3342 4.4392 39.4125 20.9035 -31.7156 -5.9991 -0.0000 0.0000 -36.9063 33.8806 53.5255 28.3669 -7.1250 0.0000 -0.0000 -73.4877 84.8696 -68.4884 0.0000 0.0000 0.0000 80.5910 -7.8036 32.9445 -10.2581 17.1422 -1.5501 0.0000 -0.0000 -23.4772 -22.1239 13.5077 -5.4245 7.1250 -0.0000 -0.0000 3.6002 -15.4619 2.5151
12.6984 17.4341 -1.0362 -0.3702 15.6726 2.6526 0.0000 0.0000 0.0000 -17.1621 -16.2151 -8.1181 2.3271 9.5165 27.4248 1.1378 0.5803 -20.3819 2.7917 -10.3499 -30.1174 0.0000 0.0000 0.0000 19.1441 23.5402 0.4543 -1.5850 -7.9421 22.5384 0.1156 -15.3642 -20.5741 -1.4558 7.6264 -21.5850 -3.4959 1.8174 1.8458 0.7579 2.3193 -4.0759 2.5897 1.3193 -5.4332 2.7733 2.8958 -22.9161 -0.1391 3.2448 28.0667 0.0682 1.7329 13.3298 0.0000 0.0000 0.0000 -83.9933 3.0712 37.2798 19.1458 -29.5994 -5.1027 -0.0000 0.0000 -34.3742 33.6106 53.0176 27.9660 -7.1250 0.0000 -0.0000 -67.4512 84.7453 -62.4961 0.0000 0.0000 0.0000 81.4117 -7.0602 24.6289 -10.1568 16.9845 -1.5204 0.0000 -0.0000 -12.8753 -20.6330 15.5873 -5.7773 7.1250 -0.0000 -0.0000 4.7152 -13.4222 3.5040
12.7134 17.4315 -1.0306 -0.8800 15.3731 2.4389 0.0000 0.0000 0.0000 -16.7042 -16.2025 -8.1027 2.3870 9.6294 27.7848 1.1742 0.8057 -20.7869 2.7747 -10.3211 -30.0229 0.0000 0.0000 0.0000 19.8858 24.3056 1.1480 -1.5245 -7.7961 22.0964 0.1990 -15.9580 -20.5517 -1.3995 7.4837 -21.1567 -2.9223 1.7455 1.8182 0.8011 2.2516 -4.0153 2.3201 1.2603 -5.3241 2.8508 3.0324 -22.9569 -0.0780 3.3907 28.1005 0.1065 1.8131 13.3553 0.0000 0.0000 0.0000 -85.6439 2.6246 34.3023 18.0649 -28.2402 -4.5799 -0.0000 0.0000 -30.9058 33.3610 52.4328 27.5589 -7.1250 0.0000 -0.0000 -60.9724 84.5569 -56.0882 0.0000 0.0000 0.0000 82.5235 -6.3425 15.2406 -10.5409 17.5812 -1.6345 0.0000 -0.0000 -0.7187 -17.8476 18.6038 -5.8648 7.1250 -0.0000 -0.0000 6.7085 -10.6091 5.3968
12.7266 17.4289 -1.0262 -1.3536 15.0559 2.2734 0.0000 0.0000 0.0000 -16.2894 -16.3205 -8.0423 2.4362 9.7210 28.0780 1.2073 1.1992 -21.2289 2.7396 -10.2611 -29.8263 0.0000 0.0000 0.0000 20.4982 24.7626 1.5887 -1.4786 -7.6832 21.7558 0.2500 -16.2650 -20.4615 -1.3957 7.4740 -21.1275 -2.1042 1.6772 1.7597 0.6322 2.1896 -3.9499 1.6942 1.1895 -5.1751 3.1312 3.1771 -22.7862 -0.0163 3.4713 27.8129 0.0925 1.8870 13.2079 0.0000 0.0000 0.0000 -85.0374 2.8612 34.2237 17.9303 -28.0679 -4.5164 -0.0000 0.0000 -30.8395 33.4818 52.3682 27.6464 -7.1250 0.0000 -0.0000 -60.3879 84.6000 -55.5695 0.0000 0.0000 0.0000 83.8273 -5.9190 7.9685 -11.5210 19.0825 -1.9428 0.0000 0.0000 9.3224 -15.4425 21.5349 -5.7900 7.1250 -0.0000 -0.0000 8.3952 -7.9110 7.2400
12.7399 17.4263 -1.0266 -1.3579 14.7624 2.3678 0.0000 0.0000 0.0000 -16.3965 -16.7435 -7.9809 2.4728 9.7883 28.2938 1.2315 1.6586 -21.6246 2.5489 -9.9262 -28.7381 0.0000 0.0000 0.0000 20.4291 24.9109 1.6243 -1.4482 -7.6071 21.5269 0.2707 -16.2823 -20.2515 -1.4857 7.7009 -21.8091 -1.7275 1.5942 1.6250 0.3447 2.0837 -3.9353 1.1972 1.1143 -5.0512 3.3774 3.2858 -22.6845 0.0568 3.5099 27.6351 0.0830 1.9400 13.1193 0.0000 0.0000 0.0000 -84.4615 3.0872 34.1617 17.7167 -27.7928 -4.4163 -0.0000 0.0000 -30.9783 33.4937 52.4228 27.6743 -7.1250 0.0000 -0.0000 -60.9663 84.6160 -56.1369 0.0000 0.0000 0.0000 84.2127 -6.6709 10.6387 -12.9258 21.1784 -2.4264 0.0000 0.0000 7.0298 -15.2417 21.1418 -5.6127 7.1250 -0.0000 -0.0000 8.5043 -8.3338 7.2646
12.7507 17.4209 -1.0271 -1.4131 14.4573 2.3668 0.0000 0.0000 0.0000 -16.4654 -17.0732 -7.8154 2.4970 9.8325 28.4360 1.2420 1.9264 -21.8289 2.3118 -9.4873 -27.3320 0.0000 0.0000 0.0000 20.4991 25.2012 1.7639 -1.4350 -7.5739 21.4272 0.2927 -16.3936 -20.1783 -1.5456 7.8475 -22.2517 -1.7491 1.5276 1.6236 0.3858 1.9954 -3.9332 1.2574 1.0721 -5.0473 3.4161 3.3404 -22.6699 -0.0016 3.5922 27.6286 0.0682 1.9714 13.1174 0.0000 0.0000 0.0000 -84.4430 3.4061 33.9563 17.4751 -27.4798 -4.3043 -0.0000 0.0000 -31.1285 33.3393 52.5520 27.5771 -7.1250 0.0000 -0.0000 -62.1934 84.5680 -57.2667 0.0000 0.0000 0.0000 84.1835 -7.0395 11.7334 -14.0261 22.7720 -2.8382 0.0000 0.0000 6.8406 -14.2160 21.0001 -5.1875 7.1250 -0.0000 -0.0000 9.1505 -8.5986 7.7821
12.7599 17.4151 -1.0260 -1.4415 14.1354 2.3618 0.0000 0.0000 0.0000 -16.5783 -17.4237 -7.5655 2.5063 9.8494 28.4904 1.2368 2.5007 -22.0438 2.2809 -9.4282 -27.1443 0.0000 0.0000 0.0000 20.5673 25.5682 1.9041 -1.4405 -7.5879 21.4691 0.2885 -16.4489 -20.3178 -1.5188 7.7822 -22.0546 -1.7699 1.4849 1.6111 0.4078 1.9385 -3.9322 1.2957 1.0450 -5.0386 3.5106 3.3738 -22.5881 -0.1274 3.6484 27.6454 0.0123 1.9884 13.1139 0.0000 -0.0000 0.0000 -84.4515 3.7777 33.7283 17.2734 -27.2168 -4.2116 -0.0000 0.0000 -31.3805 33.4170 52.7108 27.6964 -7.1250 0.0000 -0.0000 -63.9316 84.6271 -58.9897 0.0000 -0.0000 0.0000 84.2795 -7.0850 12.3588 -14.8572 23.9468 -3.1678 0.0000 0.0000 6.6897 -13.8352 21.0442 -5.0538 7.1250 -0.0000 -0.0000 9.3941 -8.5980 7.9952
